<?xml version="1.0" encoding="UTF-8" standalone="no"?>
<svg
   xmlns:dc="http://purl.org/dc/elements/1.1/"
   xmlns:cc="http://creativecommons.org/ns#"
   xmlns:rdf="http://www.w3.org/1999/02/22-rdf-syntax-ns#"
   xmlns:svg="http://www.w3.org/2000/svg"
   xmlns="http://www.w3.org/2000/svg"
   xmlns:sodipodi="http://sodipodi.sourceforge.net/DTD/sodipodi-0.dtd"
   xmlns:inkscape="http://www.inkscape.org/namespaces/inkscape"
   height="16"
   viewBox="0 0 4.2333333 4.2333335"
   width="16"
   version="1.1"
   id="svg3913"
   sodipodi:docname="t1.svg"
   inkscape:version="0.92.4 (unknown)">
  <metadata
     id="metadata3919">
    <rdf:RDF>
      <cc:Work
         rdf:about="">
        <dc:format>image/svg+xml</dc:format>
        <dc:type
           rdf:resource="http://purl.org/dc/dcmitype/StillImage" />
      </cc:Work>
    </rdf:RDF>
  </metadata>
  <defs
     id="defs3917" />
  <sodipodi:namedview
     pagecolor="#ffffff"
     bordercolor="#666666"
     borderopacity="1"
     objecttolerance="10"
     gridtolerance="10"
     guidetolerance="10"
     inkscape:pageopacity="0"
     inkscape:pageshadow="2"
     inkscape:window-width="1920"
     inkscape:window-height="1015"
     id="namedview3915"
     showgrid="false"
     inkscape:zoom="50.5"
     inkscape:cx="8"
     inkscape:cy="8"
     inkscape:window-x="1600"
     inkscape:window-y="0"
     inkscape:window-maximized="1"
     inkscape:current-layer="svg3913" />
  <path
     d="M 1.9738965,0.91818278 H 4.0905632 V 3.0348494 H 1.9738965 Z"
     id="path3895"
     inkscape:connector-curvature="0"
     style="fill:#eeeeec;stroke:#888a85;stroke-width:0.26458335;stroke-linecap:round;stroke-linejoin:round" />
  <path
     d="M 1.4447298,1.4473494 H 3.5613965 V 3.564016 H 1.4447298 Z"
     id="path3897"
     inkscape:connector-curvature="0"
     style="fill:#eeeeec;stroke:#888a85;stroke-width:0.26458335;stroke-linecap:round;stroke-linejoin:round" />
  <path
     d="m 2.5030428,1.8442244 4.06e-5,1.0583261 c 0.00603,0.1622428 0.524478,0.1760075 0.5291464,1.46e-5 V 0.67222323 c 0,-0.30092221 -0.5291667,-0.28575163 -0.5291667,-1.449e-5 V 0.7858911"
     id="path3899"
     inkscape:connector-curvature="0"
     style="fill:none;stroke:#415a75;stroke-width:0.26458335" />
  <path
     d="M 0.91556333,2.7593745 V 4.0931828 H 2.5138964"
     id="path3901"
     inkscape:connector-curvature="0"
     style="fill:none;stroke:#888a85;stroke-width:0.26458335" />
  <g
     transform="matrix(0.13801989,0,0,0.16904855,-0.43724392,-0.77555692)"
     id="g3160"
     style="display:inline;overflow:inherit">
    <path
       style="fill:#72a6e8;stroke:#3690cf;stroke-width:0.40000001;stroke-linecap:round;stroke-linejoin:round;stroke-miterlimit:10"
       inkscape:connector-curvature="0"
       stroke-miterlimit="10"
       d="m 15.099,9.857 c 0,1.987 -1.614,3.597 -3.605,3.597 -1.991,0 -3.605,-1.61 -3.605,-3.597 0,-1.118 0.8,-2.243 1.732,-2.698 0.233,-0.114 1.558,-0.027 2.379,0.133 0.919,0.179 2.609,0.821 2.699,0.918 0.179,0.194 0.4,1.054 0.4,1.647 z"
       id="path3144" />
    <path
       style="fill:#ffffff"
       inkscape:connector-curvature="0"
       d="M 8.56,8.379 C 8.672,8.109 9.127,7.633 10.01,7.202 10.231,7.095 10.938,7.625 10.673,8.625 10.607,8.867 8.229,9.173 8.56,8.379 Z"
       id="path3146" />
    <path
       style="fill:#231f20"
       inkscape:connector-curvature="0"
       d="M 18.889,6.417 C 16.851,5.237 14.474,4.639 11.824,4.639 9.221,4.639 6.321,5.233 3.434,6.358 3.275,6.42 3.284,6.534 3.29,6.567 3.336,6.81 3.982,6.92 4.171,6.92 4.248,6.92 4.309,6.911 4.358,6.892 9.679,4.816 14.476,4.775 18.029,6.832 c 0.125,0.073 0.354,0.081 0.448,0.081 0.241,0 0.539,-0.038 0.587,-0.216 C 19.092,6.595 19.033,6.5 18.889,6.417 Z"
       id="path3148" />
    <path
       style="fill:#231f20"
       inkscape:connector-curvature="0"
       d="M 20.154,11.402 C 18.593,11.62 17.695,9.702 16.444,8.801 14.846,7.65 12.855,7.156 10.932,6.94 8.532,6.67 5.498,7.092 3.742,8.924 c -2.478,2.585 4.536,5.65 5.954,6.014 1.373,0.353 2.812,0.268 4.177,-0.051 1.871,-0.437 2.954,-1.67 4.609,-2.47 0.462,-0.223 -0.514,-0.299 -0.736,-0.191 -1.372,0.662 -2.266,1.782 -3.81,2.209 C 11.664,15.064 9.434,14.55 7.437,13.362 6.539,12.828 5.604,12.098 4.898,11.328 3.01,9.267 5.962,7.946 7.532,7.483 c 3.223,-0.95 7.345,0.549 9.581,2.935 1.297,1.384 1.042,1.667 3.092,1.381 0.584,-0.081 0.535,-0.479 -0.051,-0.397 z"
       id="path3150" />
    <circle
       cx="11.494"
       cy="9.8900003"
       r="1.665"
       id="circle3152" />
  </g>
</svg>
